<?xml version="1.0" encoding="utf-8"?>
<!-- Generator: Adobe Illustrator 22.0.1, SVG Export Plug-In . SVG Version: 6.00 Build 0)  -->
<svg version="1.0" id="Layer_1" xmlns="http://www.w3.org/2000/svg" xmlns:xlink="http://www.w3.org/1999/xlink" x="0px" y="0px"
	 viewBox="0 0 42 42" style="enable-background:new 0 0 42 42;" xml:space="preserve">
<g>
	<path style="fill:#FFFFFF;" d="M21,42C9.4,42,0,32.6,0,21C0,9.4,9.4,0,21,0s21,9.4,21,21C42,32.6,32.6,42,21,42z M21,3
		C11.1,3,3,11.1,3,21s8.1,18,18,18s18-8.1,18-18S30.9,3,21,3z"/>
	<polygon style="fill:#FFFFFF;" points="28.1,12 21.1,18.9 14.2,12 12.1,14.1 19,21.1 12.1,28 14.2,30.1 21.1,23.2 28.1,30.1 
		30.2,28 23.3,21.1 30.2,14.1 	"/>
</g>
</svg>
