<?xml version="1.0" encoding="utf-8"?>
<!-- Generator: Adobe Illustrator 22.0.1, SVG Export Plug-In . SVG Version: 6.00 Build 0)  -->
<svg version="1.0" id="Layer_1" xmlns="http://www.w3.org/2000/svg" xmlns:xlink="http://www.w3.org/1999/xlink" x="0px" y="0px"
	 viewBox="0 0 42 42" style="enable-background:new 0 0 42 42;" xml:space="preserve">
<g>
	<path style="fill:#FFFFFF;" d="M21,42C9.4,42,0,32.6,0,21C0,9.4,9.4,0,21,0c11.6,0,21,9.4,21,21C42,32.6,32.6,42,21,42z M21,3
		C11.1,3,3,11.1,3,21c0,9.9,8.1,18,18,18s18-8.1,18-18S30.9,3,21,3z"/>
	<path style="fill:#FFFFFF;" d="M19.5,28.7c0,0,4.6-4.6,6-6H10v-3.4h15.5c-1.5-1.5-6-6-6-6l2.4-2.4L32,21L21.9,31.1L19.5,28.7z"/>
</g>
</svg>
