<?xml version="1.0" encoding="utf-8"?>
<!-- Generator: Adobe Illustrator 22.0.1, SVG Export Plug-In . SVG Version: 6.00 Build 0)  -->
<svg version="1.0" id="Layer_1" xmlns="http://www.w3.org/2000/svg" xmlns:xlink="http://www.w3.org/1999/xlink" x="0px" y="0px"
	 viewBox="0 0 42 42" style="enable-background:new 0 0 42 42;" xml:space="preserve">
<g>
	<path style="fill:#FFFFFF;" d="M21,0c11.6,0,21,9.4,21,21c0,11.6-9.4,21-21,21S0,32.6,0,21C0,9.4,9.4,0,21,0z M21,39
		c9.9,0,18-8.1,18-18S30.9,3,21,3C11.1,3,3,11.1,3,21C3,30.9,11.1,39,21,39z"/>
	<path style="fill:#FFFFFF;" d="M22.5,13.3c0,0-4.6,4.6-6,6H32v3.4H16.5c1.5,1.5,6,6,6,6l-2.4,2.4L10,21l10.1-10.1L22.5,13.3z"/>
</g>
</svg>
